<svg width="24" height="24" viewBox="0 0 24 24" fill="none" xmlns="http://www.w3.org/2000/svg">
<g id="icon button">
<path id="Vector" d="M11.8484 15.3864C11.8664 15.4081 11.8894 15.4257 11.9157 15.4378C11.9419 15.4498 11.9708 15.4561 12 15.4561C12.0292 15.4561 12.0581 15.4498 12.0843 15.4378C12.1106 15.4257 12.1336 15.4081 12.1516 15.3864L14.8468 12.1659C14.9455 12.0477 14.8564 11.8727 14.6952 11.8727H12.912V4.39047C12.912 4.27304 12.779 4 12.5134 4H11.4866C11.1699 4 11.0832 4.26925 11.0832 4.39047V11.8705H9.30481C9.15321 11.8705 9.05455 12.0455 9.15321 12.1636L11.8484 15.3864ZM20.5388 14.5909H19.5922C19.3957 14.5909 19.1711 14.8091 19.1711 14.9091V18.2727H4.82888V14.9091C4.82888 14.8042 4.63598 14.5909 4.36083 14.5909H3.42939C3.21859 14.5909 3 14.7955 3 14.9091V19.2727C3 19.675 3.34412 20 3.77005 20H20.2299C20.6559 20 21 19.675 21 19.2727V14.9091C21 14.8091 20.7674 14.5909 20.5388 14.5909Z" fill="white"/>
</g>
</svg>
